<mxfile host="app.diagrams.net" modified="2024-01-15T09:40:41.465Z" agent="Mozilla/5.0 (Windows NT 10.0; Win64; x64) AppleWebKit/537.36 (KHTML, like Gecko) Chrome/120.0.0.0 Safari/537.36 Edg/120.0.0.0" etag="pITb0cOG50xechCXOkZi" version="22.1.17" type="device">
  <diagram name="Stránka-1" id="WNIvwQ0ydk9NxvEnmw3R">
    <mxGraphModel dx="929" dy="453" grid="1" gridSize="10" guides="1" tooltips="1" connect="1" arrows="1" fold="1" page="1" pageScale="1" pageWidth="827" pageHeight="1169" math="0" shadow="0">
      <root>
        <mxCell id="0" />
        <mxCell id="1" parent="0" />
        <mxCell id="7F5zNZ3As3ux4w5lVplU-4" value="" style="edgeStyle=orthogonalEdgeStyle;rounded=0;orthogonalLoop=1;jettySize=auto;html=1;" edge="1" parent="1" source="7F5zNZ3As3ux4w5lVplU-2" target="7F5zNZ3As3ux4w5lVplU-3">
          <mxGeometry relative="1" as="geometry" />
        </mxCell>
        <mxCell id="7F5zNZ3As3ux4w5lVplU-2" value="Eratosterovo sito" style="ellipse;whiteSpace=wrap;html=1;aspect=fixed;" vertex="1" parent="1">
          <mxGeometry x="324" y="380" width="80" height="80" as="geometry" />
        </mxCell>
        <mxCell id="7F5zNZ3As3ux4w5lVplU-6" value="" style="edgeStyle=orthogonalEdgeStyle;rounded=0;orthogonalLoop=1;jettySize=auto;html=1;" edge="1" parent="1" source="7F5zNZ3As3ux4w5lVplU-3" target="7F5zNZ3As3ux4w5lVplU-5">
          <mxGeometry relative="1" as="geometry" />
        </mxCell>
        <mxCell id="7F5zNZ3As3ux4w5lVplU-3" value="N= celé číslo" style="shape=parallelogram;perimeter=parallelogramPerimeter;whiteSpace=wrap;html=1;fixedSize=1;" vertex="1" parent="1">
          <mxGeometry x="304" y="490" width="120" height="60" as="geometry" />
        </mxCell>
        <mxCell id="7F5zNZ3As3ux4w5lVplU-9" value="" style="edgeStyle=orthogonalEdgeStyle;rounded=0;orthogonalLoop=1;jettySize=auto;html=1;" edge="1" parent="1" source="7F5zNZ3As3ux4w5lVplU-5" target="7F5zNZ3As3ux4w5lVplU-7">
          <mxGeometry relative="1" as="geometry">
            <Array as="points">
              <mxPoint x="360" y="620" />
              <mxPoint x="360" y="620" />
            </Array>
          </mxGeometry>
        </mxCell>
        <mxCell id="7F5zNZ3As3ux4w5lVplU-5" value="Seznam čísel C&lt;br&gt;1-N" style="whiteSpace=wrap;html=1;" vertex="1" parent="1">
          <mxGeometry x="304" y="580" width="120" height="60" as="geometry" />
        </mxCell>
        <mxCell id="7F5zNZ3As3ux4w5lVplU-10" style="edgeStyle=orthogonalEdgeStyle;rounded=0;orthogonalLoop=1;jettySize=auto;html=1;" edge="1" parent="1" source="7F5zNZ3As3ux4w5lVplU-7" target="7F5zNZ3As3ux4w5lVplU-11">
          <mxGeometry relative="1" as="geometry">
            <mxPoint x="260" y="670" as="targetPoint" />
          </mxGeometry>
        </mxCell>
        <mxCell id="7F5zNZ3As3ux4w5lVplU-15" value="" style="edgeStyle=orthogonalEdgeStyle;rounded=0;orthogonalLoop=1;jettySize=auto;html=1;" edge="1" parent="1" source="7F5zNZ3As3ux4w5lVplU-7" target="7F5zNZ3As3ux4w5lVplU-14">
          <mxGeometry relative="1" as="geometry" />
        </mxCell>
        <mxCell id="7F5zNZ3As3ux4w5lVplU-7" value="od 2 do odmocniny z N&lt;br&gt;která jsou v seznamu C" style="strokeWidth=2;html=1;shape=mxgraph.flowchart.loop_limit;whiteSpace=wrap;" vertex="1" parent="1">
          <mxGeometry x="314" y="660" width="100" height="60" as="geometry" />
        </mxCell>
        <mxCell id="7F5zNZ3As3ux4w5lVplU-11" value="vysledek jsou vsechno cisla v seznamu C" style="ellipse;whiteSpace=wrap;html=1;" vertex="1" parent="1">
          <mxGeometry x="160" y="650" width="120" height="80" as="geometry" />
        </mxCell>
        <mxCell id="7F5zNZ3As3ux4w5lVplU-17" value="" style="edgeStyle=orthogonalEdgeStyle;rounded=0;orthogonalLoop=1;jettySize=auto;html=1;" edge="1" parent="1" source="7F5zNZ3As3ux4w5lVplU-14" target="7F5zNZ3As3ux4w5lVplU-16">
          <mxGeometry relative="1" as="geometry" />
        </mxCell>
        <mxCell id="7F5zNZ3As3ux4w5lVplU-19" style="edgeStyle=orthogonalEdgeStyle;rounded=0;orthogonalLoop=1;jettySize=auto;html=1;" edge="1" parent="1" source="7F5zNZ3As3ux4w5lVplU-14" target="7F5zNZ3As3ux4w5lVplU-7">
          <mxGeometry relative="1" as="geometry">
            <Array as="points">
              <mxPoint x="290" y="770" />
              <mxPoint x="290" y="900" />
              <mxPoint x="460" y="900" />
              <mxPoint x="460" y="700" />
            </Array>
          </mxGeometry>
        </mxCell>
        <mxCell id="7F5zNZ3As3ux4w5lVplU-14" value="od dvojnásobku vybraného čísla do N, násobky vybraného čísla" style="strokeWidth=2;html=1;shape=mxgraph.flowchart.loop_limit;whiteSpace=wrap;" vertex="1" parent="1">
          <mxGeometry x="307" y="740" width="114" height="60" as="geometry" />
        </mxCell>
        <mxCell id="7F5zNZ3As3ux4w5lVplU-18" style="edgeStyle=orthogonalEdgeStyle;rounded=0;orthogonalLoop=1;jettySize=auto;html=1;" edge="1" parent="1" source="7F5zNZ3As3ux4w5lVplU-16" target="7F5zNZ3As3ux4w5lVplU-14">
          <mxGeometry relative="1" as="geometry">
            <Array as="points">
              <mxPoint x="440" y="850" />
              <mxPoint x="440" y="770" />
            </Array>
          </mxGeometry>
        </mxCell>
        <mxCell id="7F5zNZ3As3ux4w5lVplU-16" value="vyškrtnout ze seznamu C" style="whiteSpace=wrap;html=1;strokeWidth=2;" vertex="1" parent="1">
          <mxGeometry x="304" y="820" width="120" height="60" as="geometry" />
        </mxCell>
      </root>
    </mxGraphModel>
  </diagram>
</mxfile>
